<svg width="18" height="20" viewBox="0 0 18 20" fill="none" xmlns="http://www.w3.org/2000/svg">
<path d="M3 20V10.85C2.1 10.6167 1.375 10.1417 0.825 9.425C0.275 8.70833 0 7.9 0 7V0H2V6H3V0H5V6H6V0H8V7C8 7.9 7.725 8.70833 7.175 9.425C6.625 10.1417 5.9 10.6167 5 10.85V20H3ZM13 20V10.475C12.1 10.175 11.375 9.54583 10.825 8.5875C10.275 7.62917 10 6.54167 10 5.325C10 3.84167 10.3917 2.58333 11.175 1.55C11.9583 0.516667 12.9 0 14 0C15.1 0 16.0417 0.520833 16.825 1.5625C17.6083 2.60417 18 3.86667 18 5.35C18 6.56667 17.725 7.65 17.175 8.6C16.625 9.55 15.9 10.175 15 10.475V20H13Z" fill="#10310B"/>
</svg>
