<svg width="20" height="20" viewBox="0 0 20 20" fill="none" xmlns="http://www.w3.org/2000/svg">
<path d="M8.33333 11.6667V13.8889C8.33333 14.3519 8.49537 14.7454 8.81944 15.0694C9.14352 15.3935 9.53704 15.5556 10 15.5556C10.463 15.5556 10.8565 15.3935 11.1806 15.0694C11.5046 14.7454 11.6667 14.3519 11.6667 13.8889V11.6667H13.8889C14.3519 11.6667 14.7454 11.5046 15.0694 11.1806C15.3935 10.8565 15.5556 10.463 15.5556 10C15.5556 9.53704 15.3935 9.14352 15.0694 8.81944C14.7454 8.49537 14.3519 8.33333 13.8889 8.33333H11.6667V6.11111C11.6667 5.64815 11.5046 5.25463 11.1806 4.93056C10.8565 4.60648 10.463 4.44444 10 4.44444C9.53704 4.44444 9.14352 4.60648 8.81944 4.93056C8.49537 5.25463 8.33333 5.64815 8.33333 6.11111V8.33333H6.11111C5.64815 8.33333 5.25463 8.49537 4.93056 8.81944C4.60648 9.14352 4.44444 9.53704 4.44444 10C4.44444 10.463 4.60648 10.8565 4.93056 11.1806C5.25463 11.5046 5.64815 11.6667 6.11111 11.6667H8.33333ZM2.22222 20C1.61111 20 1.08796 19.7824 0.652778 19.3472C0.217593 18.912 0 18.3889 0 17.7778V2.22222C0 1.61111 0.217593 1.08796 0.652778 0.652778C1.08796 0.217593 1.61111 0 2.22222 0H17.7778C18.3889 0 18.912 0.217593 19.3472 0.652778C19.7824 1.08796 20 1.61111 20 2.22222V17.7778C20 18.3889 19.7824 18.912 19.3472 19.3472C18.912 19.7824 18.3889 20 17.7778 20H2.22222ZM2.22222 17.7778H17.7778V2.22222H2.22222V17.7778Z" fill="#10310B"/>
</svg>
