<svg width="32" height="20" viewBox="0 0 32 20" fill="none" xmlns="http://www.w3.org/2000/svg">
<path d="M26 11C26.5523 11 27 10.5523 27 10C27 9.44772 26.5523 9 26 9L26 11ZM5.29289 9.29289C4.90237 9.68342 4.90237 10.3166 5.29289 10.7071L11.6569 17.0711C12.0474 17.4616 12.6805 17.4616 13.0711 17.0711C13.4616 16.6805 13.4616 16.0474 13.0711 15.6569L7.41421 10L13.0711 4.34314C13.4616 3.95262 13.4616 3.31946 13.0711 2.92893C12.6805 2.53841 12.0474 2.53841 11.6569 2.92893L5.29289 9.29289ZM26 10L26 9L6 9L6 10L6 11L26 11L26 10Z" fill="#FAF0E6"/>
</svg>
