<svg width="17" height="15" viewBox="0 0 17 15" fill="none" xmlns="http://www.w3.org/2000/svg">
<path d="M8.33333 14.7292C8.13889 14.7292 7.94097 14.6944 7.73958 14.625C7.53819 14.5556 7.36111 14.4444 7.20833 14.2917L5.77083 12.9792C4.29861 11.6319 2.96875 10.2951 1.78125 8.96875C0.59375 7.64236 0 6.18056 0 4.58333C0 3.27778 0.4375 2.1875 1.3125 1.3125C2.1875 0.4375 3.27778 0 4.58333 0C5.31944 0 6.01389 0.15625 6.66667 0.46875C7.31944 0.78125 7.875 1.20833 8.33333 1.75C8.79167 1.20833 9.34722 0.78125 10 0.46875C10.6528 0.15625 11.3472 0 12.0833 0C13.3889 0 14.4792 0.4375 15.3542 1.3125C16.2292 2.1875 16.6667 3.27778 16.6667 4.58333C16.6667 6.18056 16.0764 7.64583 14.8958 8.97917C13.7153 10.3125 12.375 11.6528 10.875 13L9.45833 14.2917C9.30556 14.4444 9.12847 14.5556 8.92708 14.625C8.72569 14.6944 8.52778 14.7292 8.33333 14.7292ZM7.54167 3.41667C7.13889 2.84722 6.70833 2.41319 6.25 2.11458C5.79167 1.81597 5.23611 1.66667 4.58333 1.66667C3.75 1.66667 3.05556 1.94444 2.5 2.5C1.94444 3.05556 1.66667 3.75 1.66667 4.58333C1.66667 5.30556 1.92361 6.07292 2.4375 6.88542C2.95139 7.69792 3.56597 8.48611 4.28125 9.25C4.99653 10.0139 5.73264 10.7292 6.48958 11.3958C7.24653 12.0625 7.86111 12.6111 8.33333 13.0417C8.80556 12.6111 9.42014 12.0625 10.1771 11.3958C10.934 10.7292 11.6701 10.0139 12.3854 9.25C13.1007 8.48611 13.7153 7.69792 14.2292 6.88542C14.7431 6.07292 15 5.30556 15 4.58333C15 3.75 14.7222 3.05556 14.1667 2.5C13.6111 1.94444 12.9167 1.66667 12.0833 1.66667C11.4306 1.66667 10.875 1.81597 10.4167 2.11458C9.95833 2.41319 9.52778 2.84722 9.125 3.41667C9.02778 3.55556 8.90972 3.65972 8.77083 3.72917C8.63194 3.79861 8.48611 3.83333 8.33333 3.83333C8.18056 3.83333 8.03472 3.79861 7.89583 3.72917C7.75694 3.65972 7.63889 3.55556 7.54167 3.41667Z" fill="#10310B"/>
</svg>
