<svg width="30" height="26" viewBox="0 0 30 26" fill="none" xmlns="http://www.w3.org/2000/svg">
<path d="M15 26C14.65 26 14.2938 25.9387 13.9313 25.8161C13.5688 25.6935 13.25 25.4974 12.975 25.2277L10.3875 22.9109C7.7375 20.5328 5.34375 18.173 3.20625 15.8317C1.06875 13.4903 0 10.9099 0 8.09052C0 5.78595 0.7875 3.86139 2.3625 2.31683C3.9375 0.772277 5.9 0 8.25 0C9.575 0 10.825 0.275813 12 0.82744C13.175 1.37907 14.175 2.13296 15 3.08911C15.825 2.13296 16.825 1.37907 18 0.82744C19.175 0.275813 20.425 0 21.75 0C24.1 0 26.0625 0.772277 27.6375 2.31683C29.2125 3.86139 30 5.78595 30 8.09052C30 10.9099 28.9375 13.4965 26.8125 15.8501C24.6875 18.2037 22.275 20.5695 19.575 22.9477L17.025 25.2277C16.75 25.4974 16.4313 25.6935 16.0688 25.8161C15.7063 25.9387 15.35 26 15 26ZM13.575 6.03112C12.85 5.02593 12.075 4.25978 11.25 3.73267C10.425 3.20556 9.425 2.94201 8.25 2.94201C6.75 2.94201 5.5 3.43234 4.5 4.41301C3.5 5.39368 3 6.61952 3 8.09052C3 9.36539 3.4625 10.7199 4.3875 12.1542C5.3125 13.5884 6.41875 14.9797 7.70625 16.3281C8.99375 17.6766 10.3188 18.9392 11.6812 20.116C13.0437 21.2928 14.15 22.2612 15 23.0212C15.85 22.2612 16.9563 21.2928 18.3188 20.116C19.6813 18.9392 21.0063 17.6766 22.2938 16.3281C23.5813 14.9797 24.6875 13.5884 25.6125 12.1542C26.5375 10.7199 27 9.36539 27 8.09052C27 6.61952 26.5 5.39368 25.5 4.41301C24.5 3.43234 23.25 2.94201 21.75 2.94201C20.575 2.94201 19.575 3.20556 18.75 3.73267C17.925 4.25978 17.15 5.02593 16.425 6.03112C16.25 6.27628 16.0375 6.46016 15.7875 6.58274C15.5375 6.70533 15.275 6.76662 15 6.76662C14.725 6.76662 14.4625 6.70533 14.2125 6.58274C13.9625 6.46016 13.75 6.27628 13.575 6.03112Z" fill="#008000"/>
</svg>
