<svg width="18" height="18" viewBox="0 0 18 18" fill="none" xmlns="http://www.w3.org/2000/svg">
<path d="M9 18C8.71667 18 8.47917 17.9042 8.2875 17.7125C8.09583 17.5208 8 17.2833 8 17V10H1C0.716667 10 0.479167 9.90417 0.2875 9.7125C0.0958333 9.52083 0 9.28333 0 9C0 8.71667 0.0958333 8.47917 0.2875 8.2875C0.479167 8.09583 0.716667 8 1 8H8V1C8 0.716667 8.09583 0.479167 8.2875 0.2875C8.47917 0.0958333 8.71667 0 9 0C9.28333 0 9.52083 0.0958333 9.7125 0.2875C9.90417 0.479167 10 0.716667 10 1V8H17C17.2833 8 17.5208 8.09583 17.7125 8.2875C17.9042 8.47917 18 8.71667 18 9C18 9.28333 17.9042 9.52083 17.7125 9.7125C17.5208 9.90417 17.2833 10 17 10H10V17C10 17.2833 9.90417 17.5208 9.7125 17.7125C9.52083 17.9042 9.28333 18 9 18Z" fill="#10310B"/>
</svg>
