<svg width="13" height="14" viewBox="0 0 13 14" fill="none" xmlns="http://www.w3.org/2000/svg">
<path d="M1.25 13.75C0.90625 13.75 0.611979 13.6276 0.367188 13.3828C0.122396 13.138 0 12.8438 0 12.5C0 12.1562 0.122396 11.862 0.367188 11.6172C0.611979 11.3724 0.90625 11.25 1.25 11.25H11.25C11.5938 11.25 11.888 11.3724 12.1328 11.6172C12.3776 11.862 12.5 12.1562 12.5 12.5C12.5 12.8438 12.3776 13.138 12.1328 13.3828C11.888 13.6276 11.5938 13.75 11.25 13.75H1.25ZM2.5 8.75H3.375L8.25 3.89062L7.35938 3L2.5 7.875V8.75ZM1.25 9.375V7.60938C1.25 7.52604 1.26562 7.44531 1.29688 7.36719C1.32812 7.28906 1.375 7.21875 1.4375 7.15625L8.25 0.359375C8.36458 0.244792 8.4974 0.15625 8.64844 0.09375C8.79948 0.03125 8.95833 0 9.125 0C9.29167 0 9.45312 0.03125 9.60938 0.09375C9.76562 0.15625 9.90625 0.25 10.0313 0.375L10.8906 1.25C11.0156 1.36458 11.1068 1.5 11.1641 1.65625C11.2214 1.8125 11.25 1.97396 11.25 2.14062C11.25 2.29688 11.2214 2.45052 11.1641 2.60156C11.1068 2.7526 11.0156 2.89063 10.8906 3.01563L4.09375 9.8125C4.03125 9.875 3.96094 9.92188 3.88281 9.95312C3.80469 9.98438 3.72396 10 3.64063 10H1.875C1.69792 10 1.54948 9.9401 1.42969 9.82031C1.3099 9.70052 1.25 9.55208 1.25 9.375Z" fill="#10310B"/>
</svg>
