<svg width="13" height="15" viewBox="0 0 13 15" fill="none" xmlns="http://www.w3.org/2000/svg">
<path d="M2.375 14.25C1.93958 14.25 1.56684 14.095 1.25677 13.7849C0.946701 13.4748 0.791667 13.1021 0.791667 12.6667V2.375C0.567361 2.375 0.37934 2.29913 0.227604 2.1474C0.0758681 1.99566 0 1.80764 0 1.58333C0 1.35903 0.0758681 1.17101 0.227604 1.01927C0.37934 0.867535 0.567361 0.791667 0.791667 0.791667H3.95833C3.95833 0.567361 4.0342 0.37934 4.18594 0.227604C4.33767 0.0758681 4.52569 0 4.75 0H7.91667C8.14097 0 8.32899 0.0758681 8.48073 0.227604C8.63247 0.37934 8.70833 0.567361 8.70833 0.791667H11.875C12.0993 0.791667 12.2873 0.867535 12.4391 1.01927C12.5908 1.17101 12.6667 1.35903 12.6667 1.58333C12.6667 1.80764 12.5908 1.99566 12.4391 2.1474C12.2873 2.29913 12.0993 2.375 11.875 2.375V12.6667C11.875 13.1021 11.72 13.4748 11.4099 13.7849C11.0998 14.095 10.7271 14.25 10.2917 14.25H2.375ZM10.2917 2.375H2.375V12.6667H10.2917V2.375ZM4.75 11.0833C4.97431 11.0833 5.16233 11.0075 5.31406 10.8557C5.4658 10.704 5.54167 10.516 5.54167 10.2917V4.75C5.54167 4.52569 5.4658 4.33767 5.31406 4.18594C5.16233 4.0342 4.97431 3.95833 4.75 3.95833C4.52569 3.95833 4.33767 4.0342 4.18594 4.18594C4.0342 4.33767 3.95833 4.52569 3.95833 4.75V10.2917C3.95833 10.516 4.0342 10.704 4.18594 10.8557C4.33767 11.0075 4.52569 11.0833 4.75 11.0833ZM7.91667 11.0833C8.14097 11.0833 8.32899 11.0075 8.48073 10.8557C8.63247 10.704 8.70833 10.516 8.70833 10.2917V4.75C8.70833 4.52569 8.63247 4.33767 8.48073 4.18594C8.32899 4.0342 8.14097 3.95833 7.91667 3.95833C7.69236 3.95833 7.50434 4.0342 7.3526 4.18594C7.20087 4.33767 7.125 4.52569 7.125 4.75V10.2917C7.125 10.516 7.20087 10.704 7.3526 10.8557C7.50434 11.0075 7.69236 11.0833 7.91667 11.0833Z" fill="#10310B"/>
</svg>
